<svg xmlns="http://www.w3.org/2000/svg" viewBox="0 0 512 320" role="img" aria-labelledby="title desc">
  <title id="title">heard illustration</title>
  <desc id="desc">A child-friendly visual clue for the spelling word heard.</desc>
  <defs><linearGradient id="bg" x1="0" y1="0" x2="1" y2="1"><stop stop-color="#eef7ff"/><stop offset="1" stop-color="#f4efff"/></linearGradient></defs>
  <rect width="512" height="320" rx="32" fill="url(#bg)"/>

  <path d="M170 90c-58 20-70 96-30 140 20 22 20 40 6 58 34 4 60-12 70-38" fill="#f2b6c6" stroke="#c05070" stroke-width="10"/>
  <path d="M180 130c18 8 24 30 10 46" fill="none" stroke="#c05070" stroke-width="10" stroke-linecap="round"/>
  <path d="M300 120c14-10 34-10 48 0M312 150c10-8 24-8 34 0M296 180c12-8 28-8 40 0" fill="none" stroke="#225ca8" stroke-width="10" stroke-linecap="round"/>
  <rect x="181.0" y="274" width="150" height="34" rx="17" fill="#26324a" opacity=".92"/>
  <text x="256" y="298" font-family="Arial, sans-serif" font-size="21" font-weight="700" text-anchor="middle" fill="#fff">HEARD</text>
</svg>
